<?xml version="1.0" standalone="no"?>
<!DOCTYPE svg PUBLIC "-//W3C//DTD SVG 20010904//EN"
 "http://www.w3.org/TR/2001/REC-SVG-20010904/DTD/svg10.dtd">
<svg version="1.0" xmlns="http://www.w3.org/2000/svg"
 width="272.000000pt" height="272.000000pt" viewBox="0 0 272.000000 272.000000"
 preserveAspectRatio="xMidYMid meet">
<metadata>
Created by potrace 1.14, written by Peter Selinger 2001-2017
</metadata>
<g transform="translate(0.000000,272.000000) scale(0.100000,-0.100000)"
fill="#000000" stroke="none">
<path d="M215 1612 c-116 -41 -212 -76 -213 -77 -2 -2 -1 -12 2 -22 4 -12 44
-31 129 -61 67 -24 160 -57 207 -74 l85 -31 50 17 c227 79 362 130 374 141 19
18 8 31 -42 48 -23 8 -118 42 -212 74 l-170 60 -210 -75z"/>
<path d="M1892 1613 c-12 -10 -23 -30 -24 -45 -1 -16 -8 -28 -14 -28 -19 0
-24 -39 -6 -49 13 -7 16 -26 15 -101 l-1 -91 32 3 31 3 0 90 c0 86 1 90 22 93
32 5 29 52 -3 52 -17 0 -21 5 -17 19 3 11 13 21 23 24 11 3 17 12 16 23 -4 26
-47 30 -74 7z"/>
<path d="M1459 1618 c-2 -3 -4 -34 -8 -96 -1 -10 -6 -10 -23 2 -45 32 -124 9
-147 -41 -17 -38 -13 -102 9 -139 30 -48 103 -62 143 -27 15 15 17 15 17 0 0
-12 9 -17 33 -17 l32 0 0 160 0 160 -27 0 c-16 0 -29 -1 -29 -2z m-29 -148
c28 -28 27 -84 -2 -104 -30 -21 -54 -20 -78 4 -33 33 -22 96 20 113 27 10 40
7 60 -13z"/>
<path d="M2628 1608 c-2 -7 -4 -32 -3 -56 2 -42 2 -42 -21 -27 -37 24 -89 19
-125 -13 -54 -48 -50 -142 9 -195 25 -23 84 -25 118 -2 24 15 26 16 21 1 -5
-13 0 -16 27 -16 l34 0 -2 158 -1 157 -26 3 c-15 2 -28 -3 -31 -10z m-24 -141
c32 -33 23 -100 -15 -112 -57 -19 -99 28 -80 88 17 50 58 61 95 24z"/>
<path d="M1059 1598 c-1 -2 -2 -69 -3 -150 l-2 -148 88 0 c87 0 88 0 88 25 0
22 -4 24 -57 27 l-57 3 -1 35 c0 35 0 35 50 40 42 4 50 8 50 25 0 16 -7 20
-40 21 -22 1 -45 2 -50 3 -6 1 -10 16 -10 34 1 32 1 32 58 35 53 3 57 5 57 27
0 25 -1 25 -85 25 -47 0 -86 -1 -86 -2z"/>
<path d="M1575 1531 c-11 -19 -3 -155 11 -183 8 -15 23 -32 33 -38 27 -14 84
-13 100 3 11 10 14 10 18 0 3 -7 18 -13 34 -13 l29 0 0 120 0 120 -30 0 -30 0
0 -70 c0 -38 1 -72 3 -74 6 -10 -39 -46 -58 -46 -38 0 -50 27 -51 109 0 74 -1
76 -26 79 -15 2 -29 -2 -33 -7z"/>
<path d="M2050 1523 c-36 -25 -48 -43 -55 -85 -17 -98 78 -168 174 -128 83 34
90 167 12 213 -37 22 -100 22 -131 0z m99 -51 c59 -47 -4 -154 -66 -114 -37
23 -34 99 4 121 25 15 38 13 62 -7z"/>
<path d="M2280 1420 l0 -120 30 0 30 0 0 74 c0 66 3 77 22 90 12 9 29 16 38
16 10 0 15 10 15 30 0 34 -18 39 -53 14 -20 -14 -22 -14 -22 0 0 11 -10 16
-30 16 l-30 0 0 -120z"/>
<path d="M753 1408 c-6 -7 -9 -53 -8 -103 1 -65 -3 -97 -14 -117 -14 -25 -14
-30 0 -55 10 -18 15 -50 14 -86 -1 -62 14 -89 38 -68 9 7 13 32 12 76 -1 44 3
69 12 77 16 13 17 50 1 66 -8 8 -12 48 -13 115 0 85 -3 102 -16 105 -9 1 -20
-3 -26 -10z"/>
<path d="M179 1369 c-6 -82 1 -115 28 -136 83 -67 384 -62 453 7 16 16 20 34
20 81 0 54 -2 61 -17 56 -10 -3 -67 -22 -127 -43 l-109 -38 -111 38 c-61 22
-117 41 -123 44 -7 2 -13 -2 -14 -9z"/>
</g>
</svg>
